<svg width="17" height="16" viewBox="0 0 17 16" fill="none" xmlns="http://www.w3.org/2000/svg">
<path d="M14.9001 11.4081H2.1001C2.30493 9.23855 3.54508 7.3853 5.37604 6.39318L4.31425 4.55386C4.25433 4.45074 4.28917 4.31976 4.39228 4.25984C4.49539 4.19993 4.62638 4.23476 4.68629 4.33788L5.76202 6.20089C6.58275 5.82605 7.50659 5.61704 8.5001 5.61704C9.49361 5.61704 10.4174 5.82605 11.2382 6.20089L12.3139 4.33788C12.3724 4.23476 12.5048 4.19993 12.6065 4.25984C12.7082 4.31976 12.7445 4.45074 12.6846 4.55386L11.6228 6.39318C13.4551 7.3853 14.6953 9.23855 14.9001 11.4081ZM11.4374 9.6106C11.7342 9.6106 11.9753 9.36953 11.9739 9.07413C11.9739 8.77872 11.7342 8.53766 11.4374 8.53766C11.142 8.53766 10.901 8.77733 10.901 9.07413C10.901 9.36953 11.1406 9.6106 11.4374 9.6106ZM5.56136 9.6106C5.85816 9.6106 6.09923 9.36953 6.09783 9.07413C6.09783 8.77872 5.85816 8.53766 5.56136 8.53766C5.26596 8.53766 5.0249 8.77733 5.0249 9.07413C5.0249 9.36953 5.26457 9.6106 5.56136 9.6106Z" fill="#231D33" fill-opacity="0.8"/>
</svg>
