<svg width="24" height="24" viewBox="0 0 24 24" fill="none" xmlns="http://www.w3.org/2000/svg">
<mask id="mask0_4_385" style="mask-type:alpha" maskUnits="userSpaceOnUse" x="0" y="0" width="24" height="24">
<rect width="24" height="24" fill="#D9D9D9"/>
</mask>
<g mask="url(#mask0_4_385)">
<path d="M9.29985 20.925L0.974853 12.625C0.89152 12.5417 0.829187 12.4457 0.787853 12.337C0.745853 12.229 0.724854 12.1167 0.724854 12C0.724854 11.8833 0.745853 11.7707 0.787853 11.662C0.829187 11.554 0.89152 11.4583 0.974853 11.375L9.29985 3.05C9.49985 2.85 9.73319 2.75 9.99985 2.75C10.2665 2.75 10.5082 2.85833 10.7249 3.075C10.9249 3.25833 11.0249 3.48733 11.0249 3.762C11.0249 4.03733 10.9249 4.275 10.7249 4.475L3.17485 12L10.7249 19.55C10.9082 19.7333 10.9999 19.9583 10.9999 20.225C10.9999 20.4917 10.8999 20.725 10.6999 20.925C10.4999 21.125 10.2665 21.225 9.99985 21.225C9.73319 21.225 9.49985 21.125 9.29985 20.925Z" fill="#231D33" fill-opacity="0.6"/>
</g>
</svg>
