<svg width="80" height="80" viewBox="0 0 80 80" fill="none" xmlns="http://www.w3.org/2000/svg">
<g clip-path="url(#clip0_417_6109)">
<path d="M31.8333 51.7183L60.6283 22.9233C61.1238 22.4272 61.7038 22.1738 62.3683 22.1633C63.0327 22.1527 63.6236 22.4061 64.1408 22.9233C64.658 23.4405 64.9166 24.0344 64.9166 24.7049C64.9166 25.3761 64.658 25.9702 64.1408 26.4874L33.9424 56.7374C33.3397 57.3397 32.6366 57.6408 31.8333 57.6408C31.0299 57.6408 30.3269 57.3397 29.7241 56.7374L15.8074 42.8208C15.3119 42.3247 15.0674 41.7358 15.0741 41.0541C15.0802 40.373 15.3419 39.7738 15.8591 39.2566C16.3763 38.7394 16.9702 38.4808 17.6408 38.4808C18.3119 38.4808 18.9061 38.7394 19.4233 39.2566L31.8333 51.7183Z" fill="#16B874"/>
</g>
<defs>
<clipPath id="clip0_417_6109">
<rect width="80" height="80" fill="white"/>
</clipPath>
</defs>
</svg>
