<svg width="80" height="81" viewBox="0 0 80 81" fill="none" xmlns="http://www.w3.org/2000/svg">
<path d="M39.9999 56.2691C40.7627 56.2691 41.4021 56.0111 41.9183 55.495C42.4344 54.9789 42.6924 54.3394 42.6924 53.5766C42.6924 52.8139 42.4344 52.1744 41.9183 51.6583C41.4021 51.1428 40.7627 50.885 39.9999 50.885C39.2371 50.885 38.5977 51.1428 38.0816 51.6583C37.5655 52.1744 37.3074 52.8139 37.3074 53.5766C37.3074 54.3394 37.5655 54.9789 38.0816 55.495C38.5977 56.0111 39.2371 56.2691 39.9999 56.2691ZM40.0008 44.09C40.7096 44.09 41.3033 43.8503 41.7816 43.3708C42.2605 42.8919 42.4999 42.2983 42.4999 41.59V26.59C42.4999 25.8816 42.2602 25.2878 41.7808 24.8083C41.3013 24.3294 40.7074 24.09 39.9991 24.09C39.2902 24.09 38.6966 24.3294 38.2183 24.8083C37.7394 25.2878 37.4999 25.8816 37.4999 26.59V41.59C37.4999 42.2983 37.7396 42.8919 38.2191 43.3708C38.6985 43.8503 39.2924 44.09 40.0008 44.09ZM40.0058 72.1666C35.6258 72.1666 31.5088 71.3355 27.6549 69.6733C23.801 68.0111 20.4488 65.7553 17.5983 62.9058C14.7477 60.0564 12.4908 56.7055 10.8274 52.8533C9.16464 49.0011 8.33325 44.8853 8.33325 40.5058C8.33325 36.1258 9.16436 32.0089 10.8266 28.155C12.4888 24.3011 14.7446 20.9489 17.5941 18.0983C20.4435 15.2478 23.7944 12.9908 27.6466 11.3275C31.4988 9.6647 35.6146 8.83331 39.9941 8.83331C44.3741 8.83331 48.491 9.66442 52.3449 11.3266C56.1988 12.9889 59.551 15.2447 62.4016 18.0941C65.2521 20.9436 67.5091 24.2944 69.1724 28.1466C70.8352 31.9989 71.6666 36.1147 71.6666 40.4941C71.6666 44.8741 70.8355 48.9911 69.1733 52.845C67.511 56.6989 65.2552 60.0511 62.4058 62.9016C59.5563 65.7522 56.2055 68.0091 52.3533 69.6725C48.501 71.3353 44.3852 72.1666 40.0058 72.1666Z" fill="#FF244B"/>
</svg>
