<svg width="16" height="16" viewBox="0 0 16 16" fill="none" xmlns="http://www.w3.org/2000/svg">
<g clip-path="url(#clip0_93_4346)">
<path d="M7.99967 11.141C8.15223 11.141 8.28012 11.0894 8.38334 10.9862C8.48656 10.8829 8.53817 10.7551 8.53817 10.6025C8.53817 10.4499 8.48656 10.3221 8.38334 10.2188C8.28012 10.1157 8.15223 10.0642 7.99967 10.0642C7.84712 10.0642 7.71923 10.1157 7.61601 10.2188C7.51279 10.3221 7.46117 10.4499 7.46117 10.6025C7.46117 10.7551 7.51279 10.8829 7.61601 10.9862C7.71923 11.0894 7.84712 11.141 7.99967 11.141ZM7.99984 8.8205C8.14162 8.8205 8.26034 8.77261 8.35601 8.67684C8.45179 8.58095 8.49967 8.46217 8.49967 8.3205V5.29484C8.49967 5.15317 8.45173 5.03445 8.35584 4.93867C8.25995 4.84278 8.14117 4.79484 7.99951 4.79484C7.85773 4.79484 7.73901 4.84278 7.64334 4.93867C7.54756 5.03445 7.49967 5.15317 7.49967 5.29484V8.3205C7.49967 8.46217 7.54762 8.58095 7.64351 8.67684C7.7394 8.77261 7.85817 8.8205 7.99984 8.8205ZM6.13951 13.6667C5.97684 13.6667 5.82184 13.6354 5.67451 13.573C5.52717 13.5107 5.39884 13.4248 5.28951 13.3153L2.68434 10.7102C2.5749 10.6008 2.48901 10.4725 2.42667 10.3252C2.36423 10.1778 2.33301 10.0228 2.33301 9.86017V6.13984C2.33301 5.97717 2.36423 5.82217 2.42667 5.67484C2.48901 5.5275 2.5749 5.39917 2.68434 5.28984L5.28951 2.68467C5.39884 2.57523 5.52717 2.48934 5.67451 2.427C5.82184 2.36456 5.97684 2.33334 6.13951 2.33334H9.85984C10.0225 2.33334 10.1775 2.36456 10.3248 2.427C10.4722 2.48934 10.6005 2.57523 10.7098 2.68467L13.315 5.28984C13.4245 5.39917 13.5103 5.5275 13.5727 5.67484C13.6351 5.82217 13.6663 5.97717 13.6663 6.13984V9.86017C13.6663 10.0228 13.6351 10.1778 13.5727 10.3252C13.5103 10.4725 13.4245 10.6008 13.315 10.7102L10.7098 13.3153C10.6005 13.4248 10.4722 13.5107 10.3248 13.573C10.1775 13.6354 10.0225 13.6667 9.85984 13.6667H6.13951ZM6.06634 12.6667H9.93301L12.6663 9.93334V6.06667L9.93301 3.33334H6.06634L3.33301 6.06667V9.93334L6.06634 12.6667Z" fill="#231D33"/>
</g>
<defs>
<clipPath id="clip0_93_4346">
<rect width="16" height="16" fill="white"/>
</clipPath>
</defs>
</svg>
