<svg width="20" height="20" viewBox="0 0 20 20" fill="none" xmlns="http://www.w3.org/2000/svg">
<g clip-path="url(#clip0_93_3930)">
<path d="M7.95838 12.9294L15.1571 5.73061C15.281 5.60658 15.426 5.54325 15.5921 5.54061C15.7582 5.53797 15.9059 5.6013 16.0353 5.73061C16.1646 5.85991 16.2292 6.00838 16.2292 6.17602C16.2292 6.3438 16.1646 6.49234 16.0353 6.62165L8.48567 14.1841C8.33498 14.3347 8.15921 14.41 7.95838 14.41C7.75755 14.41 7.58178 14.3347 7.43109 14.1841L3.95192 10.705C3.82803 10.581 3.76692 10.4337 3.76859 10.2633C3.77012 10.093 3.83553 9.94324 3.96484 9.81394C4.09414 9.68463 4.24262 9.61998 4.41025 9.61998C4.57803 9.61998 4.72657 9.68463 4.85588 9.81394L7.95838 12.9294Z" fill="#231D33" fill-opacity="0.6"/>
</g>
<defs>
<clipPath id="clip0_93_3930">
<rect width="20" height="20" fill="white"/>
</clipPath>
</defs>
</svg>
