<svg width="81" height="80" viewBox="0 0 81 80" fill="none" xmlns="http://www.w3.org/2000/svg">
<rect width="81" height="80" fill="black"/>
<g id="Entry">
<rect width="393" height="852" transform="translate(-156 -207)" fill="#F7F2F4"/>
<g id="Frame 1000017060">
<g id="Frame 1000017059">
<g id="dont touch this shit">
<path d="M51.8951 4.22415C50.8805 16.7401 45.9634 27.4374 37.1439 36.3159C28.3244 45.1945 17.7098 50.2204 5.3 51.3938C3.97317 51.5502 2.84146 51.1787 1.90488 50.2791C0.968292 49.3795 0.5 48.2648 0.5 46.935C0.5 45.6052 0.929269 44.4904 1.78781 43.5909C2.64634 42.6913 3.73903 42.1633 5.06585 42.0068C14.978 40.9117 23.4268 36.8244 30.4122 29.745C37.3976 22.6657 41.3976 14.1196 42.4122 4.10681C42.5683 2.85521 43.1146 1.85784 44.0512 1.11471C44.9878 0.37157 46.0805 1.82845e-06 47.3293 1.95905e-06C48.6561 2.09782e-06 49.7878 0.410683 50.7244 1.23205C51.661 2.05341 52.0512 3.05078 51.8951 4.22415ZM33.0464 4.22415C32.1098 11.5773 29.0268 17.8744 23.7976 23.1155C18.5683 28.3566 12.2854 31.4855 4.94878 32.5025C3.7 32.6589 2.64634 32.3069 1.78781 31.4464C0.92927 30.586 0.500002 29.4908 0.500002 28.161C0.500002 26.9094 0.870734 25.8142 1.6122 24.8755C2.35366 23.9368 3.34878 23.3502 4.59756 23.1155C9.51464 22.255 13.6902 20.0451 17.1244 16.4859C20.5585 12.9267 22.7049 8.68297 23.5634 3.7548C23.7195 2.58142 24.2854 1.66228 25.261 0.997368C26.2366 0.332456 27.3488 -1.30604e-07 28.5976 0C29.9244 1.38766e-07 31.0366 0.410681 31.9342 1.23204C32.8317 2.05341 33.2024 3.05077 33.0464 4.22415Z" fill="#EB427B"/>
<path d="M29.1049 75.7759C30.1195 63.2599 35.0366 52.5626 43.8561 43.6841C52.6756 34.8055 63.2903 29.7796 75.7 28.6062C77.0268 28.4497 78.1585 28.8213 79.0951 29.7209C80.0317 30.6205 80.5 31.7352 80.5 33.065C80.5 34.3948 80.0707 35.5095 79.2122 36.4091C78.3537 37.3087 77.261 37.8367 75.9342 37.9932C66.022 39.0883 57.5732 43.1756 50.5878 50.255C43.6025 57.3343 39.6025 65.8804 38.5878 75.8932C38.4317 77.1448 37.8854 78.1422 36.9488 78.8853C36.0122 79.6284 34.9195 80 33.6707 80C32.3439 80 31.2122 79.5893 30.2756 78.768C29.339 77.9466 28.9488 76.9492 29.1049 75.7759ZM47.9537 75.7759C48.8903 68.4227 51.9732 62.1256 57.2024 56.8845C62.4317 51.6434 68.7146 48.5144 76.0512 47.4975C77.3 47.3411 78.3537 47.6931 79.2122 48.5536C80.0707 49.414 80.5 50.5092 80.5 51.839C80.5 53.0906 80.1293 54.1858 79.3878 55.1245C78.6463 56.0632 77.6512 56.6498 76.4024 56.8845C71.4854 57.745 67.3098 59.9549 63.8756 63.5141C60.4415 67.0733 58.2951 71.317 57.4366 76.2452C57.2805 77.4186 56.7146 78.3377 55.739 79.0026C54.7634 79.6675 53.6512 80 52.4025 80C51.0756 80 49.9634 79.5893 49.0659 78.768C48.1683 77.9466 47.7976 76.9492 47.9537 75.7759Z" fill="#EB427B"/>
</g>
</g>
</g>
</g>
</svg>
