<svg width="24" height="24" viewBox="0 0 24 24" fill="none" xmlns="http://www.w3.org/2000/svg">
<g clip-path="url(#clip0_369_6760)">
<path d="M3.654 19.308C3.15684 19.308 2.73125 19.131 2.37725 18.777C2.02325 18.423 1.84625 17.9974 1.84625 17.5002V8.34647C1.84625 8.13397 1.91817 7.95581 2.062 7.81197C2.20584 7.66831 2.384 7.59647 2.5965 7.59647C2.80917 7.59647 2.98725 7.66831 3.13075 7.81197C3.27442 7.95581 3.34625 8.13397 3.34625 8.34647V17.5002C3.34625 17.5771 3.37825 17.6476 3.44225 17.7117C3.50642 17.7759 3.577 17.808 3.654 17.808H18.423C18.6355 17.808 18.8137 17.8799 18.9575 18.0237C19.1012 18.1674 19.173 18.3456 19.173 18.5582C19.173 18.7709 19.1012 18.949 18.9575 19.0925C18.8137 19.2361 18.6355 19.308 18.423 19.308H3.654ZM7.15375 15.808C6.65675 15.808 6.23125 15.631 5.87725 15.277C5.52325 14.923 5.34625 14.4974 5.34625 14.0002V6.42322C5.34625 5.92622 5.52325 5.50072 5.87725 5.14672C6.23125 4.79272 6.65675 4.61572 7.15375 4.61572H20.346C20.8432 4.61572 21.2688 4.79272 21.6228 5.14672C21.9768 5.50072 22.1538 5.92622 22.1538 6.42322V14.0002C22.1538 14.4974 21.9768 14.923 21.6228 15.277C21.2688 15.631 20.8432 15.808 20.346 15.808H7.15375ZM8.65375 14.308C8.65375 13.8093 8.47675 13.3833 8.12275 13.03C7.76875 12.6768 7.34325 12.5002 6.84625 12.5002V14.0002C6.84625 14.0836 6.87667 14.1556 6.9375 14.2165C6.99834 14.2775 7.07042 14.308 7.15375 14.308H8.65375ZM18.8463 14.308H20.346C20.4293 14.308 20.5015 14.2775 20.5625 14.2165C20.6233 14.1556 20.6538 14.0836 20.6538 14.0002V12.5002C20.1551 12.5002 19.7292 12.6772 19.376 13.0312C19.0228 13.3852 18.8463 13.8108 18.8463 14.308ZM13.75 12.7117C14.4487 12.7117 15.04 12.4697 15.524 11.9857C16.008 11.5017 16.25 10.9104 16.25 10.2117C16.25 9.51306 16.008 8.92172 15.524 8.43772C15.04 7.95372 14.4487 7.71172 13.75 7.71172C13.0513 7.71172 12.46 7.95372 11.976 8.43772C11.492 8.92172 11.25 9.51306 11.25 10.2117C11.25 10.9104 11.492 11.5017 11.976 11.9857C12.46 12.4697 13.0513 12.7117 13.75 12.7117ZM6.84625 7.92322C7.34492 7.92322 7.77084 7.74622 8.124 7.39222C8.47717 7.03822 8.65375 6.61272 8.65375 6.11572H7.15375C7.07042 6.11572 6.99834 6.14614 6.9375 6.20697C6.87667 6.26781 6.84625 6.33989 6.84625 6.42322V7.92322ZM20.6538 7.92322V6.42322C20.6538 6.33989 20.6233 6.26781 20.5625 6.20697C20.5015 6.14614 20.4293 6.11572 20.346 6.11572H18.8463C18.8463 6.61439 19.0233 7.04031 19.3773 7.39347C19.7313 7.74664 20.1568 7.92322 20.6538 7.92322Z" fill="#231D33" fill-opacity="0.8"/>
</g>
<defs>
<clipPath id="clip0_369_6760">
<rect width="24" height="24" fill="white"/>
</clipPath>
</defs>
</svg>
