<svg width="25" height="25" viewBox="0 0 25 25" fill="none" xmlns="http://www.w3.org/2000/svg">
<path d="M21.875 16.8156V18.2292C21.875 19.0771 21.4781 19.8021 20.9271 20.3719C20.3823 20.9365 19.6427 21.3969 18.8104 21.7615C17.1417 22.4906 14.9104 22.9167 12.5 22.9167C10.0896 22.9167 7.85833 22.4917 6.18958 21.7615C5.35729 21.3969 4.61771 20.9365 4.07292 20.3719C3.56771 19.851 3.19271 19.1969 3.13333 18.4385L3.125 18.2292V16.8156C3.60903 17.092 4.12778 17.3333 4.68125 17.5396C6.79583 18.3219 9.56146 18.7583 12.5 18.7583C15.4385 18.7583 18.2042 18.3219 20.3188 17.5396C20.734 17.3854 21.1295 17.2108 21.5052 17.0156L21.875 16.8156ZM3.125 11.0865C3.60903 11.3628 4.12778 11.6042 4.68125 11.8104C6.79583 12.5927 9.56146 13.0292 12.5 13.0292C15.4385 13.0292 18.2042 12.5927 20.3188 11.8104C20.8565 11.6123 21.377 11.3702 21.875 11.0865V14.3208C21.1835 14.8551 20.4151 15.2815 19.5958 15.5854C17.7677 16.2625 15.2583 16.676 12.5 16.676C9.74271 16.676 7.23333 16.2625 5.40417 15.5854C4.58491 15.2815 3.81645 14.8551 3.125 14.3208V11.0865ZM12.5 3.125C14.9104 3.125 17.1417 3.55 18.8104 4.28021C19.6427 4.64479 20.3823 5.10521 20.9271 5.66979C21.4323 6.19062 21.8073 6.84479 21.8667 7.60312L21.875 7.8125V8.59167C21.1835 9.12595 20.4151 9.55232 19.5958 9.85625C17.7677 10.5333 15.2583 10.9469 12.5 10.9469C9.74271 10.9469 7.23333 10.5333 5.40417 9.85625C4.69999 9.59463 4.03292 9.24236 3.41979 8.80833L3.125 8.59167V7.8125C3.125 6.96458 3.52188 6.23958 4.07292 5.66979C4.61771 5.10521 5.35729 4.64479 6.18958 4.28021C7.85833 3.55104 10.0896 3.125 12.5 3.125Z" fill="black"/>
</svg>
