<svg width="16" height="16" viewBox="0 0 16 16" fill="none" xmlns="http://www.w3.org/2000/svg">
<g clip-path="url(#clip0_50_3843)">
<path d="M3.33334 12.6668H4.17434L10.9987 5.8425L10.1577 5.0015L3.33334 11.8258V12.6668ZM2.93601 13.6668C2.76523 13.6668 2.62212 13.6091 2.50668 13.4935C2.39112 13.3781 2.33334 13.2349 2.33334 13.0642V11.9092C2.33334 11.7466 2.36457 11.5917 2.42701 11.4443C2.48934 11.297 2.57523 11.1686 2.68468 11.0592L11.127 2.62066C11.2278 2.52911 11.3391 2.45838 11.4608 2.4085C11.5827 2.3585 11.7105 2.3335 11.8442 2.3335C11.9778 2.3335 12.1073 2.35722 12.2325 2.40466C12.3578 2.45211 12.4688 2.52755 12.5653 2.631L13.3795 3.45533C13.483 3.55188 13.5567 3.663 13.6007 3.78866C13.6447 3.91433 13.6667 4.04 13.6667 4.16566C13.6667 4.29977 13.6438 4.42772 13.598 4.5495C13.5522 4.67139 13.4794 4.78272 13.3795 4.8835L4.94101 13.3155C4.83157 13.4249 4.70318 13.5108 4.55584 13.5732C4.40851 13.6356 4.25357 13.6668 4.09101 13.6668H2.93601ZM10.5708 5.42933L10.1577 5.0015L10.9987 5.8425L10.5708 5.42933Z" fill="#231D33"/>
</g>
<defs>
<clipPath id="clip0_50_3843">
<rect width="16" height="16" fill="white"/>
</clipPath>
</defs>
</svg>
