<svg width="80" height="80" viewBox="0 0 80 80" fill="none" xmlns="http://www.w3.org/2000/svg">
<path d="M39.9999 55.7693C40.7627 55.7693 41.4021 55.5113 41.9183 54.9952C42.4344 54.479 42.6924 53.8396 42.6924 53.0768C42.6924 52.3141 42.4344 51.6746 41.9183 51.1585C41.4021 50.6429 40.7627 50.3852 39.9999 50.3852C39.2371 50.3852 38.5977 50.6429 38.0816 51.1585C37.5655 51.6746 37.3074 52.3141 37.3074 53.0768C37.3074 53.8396 37.5655 54.479 38.0816 54.9952C38.5977 55.5113 39.2371 55.7693 39.9999 55.7693ZM40.0008 43.5902C40.7096 43.5902 41.3033 43.3504 41.7816 42.871C42.2605 42.3921 42.4999 41.7985 42.4999 41.0902V26.0902C42.4999 25.3818 42.2602 24.7879 41.7808 24.3085C41.3013 23.8296 40.7074 23.5902 39.9991 23.5902C39.2902 23.5902 38.6966 23.8296 38.2183 24.3085C37.7394 24.7879 37.4999 25.3818 37.4999 26.0902V41.0902C37.4999 41.7985 37.7396 42.3921 38.2191 42.871C38.6985 43.3504 39.2924 43.5902 40.0008 43.5902ZM40.0058 71.6668C35.6258 71.6668 31.5088 70.8357 27.6549 69.1735C23.801 67.5113 20.4488 65.2554 17.5983 62.406C14.7477 59.5566 12.4908 56.2057 10.8274 52.3535C9.16464 48.5013 8.33325 44.3854 8.33325 40.006C8.33325 35.626 9.16436 31.5091 10.8266 27.6552C12.4888 23.8013 14.7446 20.449 17.5941 17.5985C20.4435 14.7479 23.7944 12.491 27.6466 10.8277C31.4988 9.16488 35.6146 8.3335 39.9941 8.3335C44.3741 8.3335 48.491 9.16461 52.3449 10.8268C56.1988 12.4891 59.551 14.7449 62.4016 17.5943C65.2521 20.4438 67.5091 23.7946 69.1724 27.6468C70.8352 31.4991 71.6666 35.6149 71.6666 39.9943C71.6666 44.3743 70.8355 48.4913 69.1733 52.3452C67.511 56.1991 65.2552 59.5513 62.4058 62.4018C59.5563 65.2524 56.2055 67.5093 52.3533 69.1727C48.501 70.8354 44.3852 71.6668 40.0058 71.6668Z" fill="#EDEBF2" fill-opacity="0.4"/>
</svg>
