<svg width="24" height="24" viewBox="0 0 24 24" fill="none" xmlns="http://www.w3.org/2000/svg">
<g clip-path="url(#clip0_403_6167)">
<path d="M17.1161 8.0176C16.4803 8.01884 15.9633 7.50407 15.9621 6.86829C15.9609 6.23251 16.4756 5.71556 17.1117 5.71432C17.7478 5.71307 18.2647 6.22815 18.266 6.86393C18.2669 7.49971 17.7521 8.01636 17.1161 8.0176Z" fill="#231D33"/>
<path fill-rule="evenodd" clip-rule="evenodd" d="M12.0091 16.9287C9.28717 16.934 7.07598 14.7318 7.0707 12.0092C7.06541 9.28728 9.26819 7.07575 11.9901 7.07046C14.7127 7.06518 16.9241 9.26862 16.9294 11.9903C16.9347 14.7128 14.7313 16.9234 12.0091 16.9287ZM11.9935 8.80018C10.2268 8.8033 8.79665 10.2388 8.79977 12.0058C8.80318 13.7732 10.239 15.203 12.0057 15.1996C13.773 15.1962 15.2032 13.761 15.1997 11.9937C15.1963 10.2263 13.7606 8.79677 11.9935 8.80018Z" fill="#231D33"/>
<path fill-rule="evenodd" clip-rule="evenodd" d="M5.69526 2.91709C6.30491 2.6782 7.00257 2.51459 8.02403 2.46638C9.04799 2.41724 9.37488 2.40604 11.9814 2.40106C14.5885 2.39609 14.9154 2.40604 15.9394 2.45145C16.9612 2.49562 17.6591 2.65674 18.27 2.89314C18.9021 3.13668 19.4383 3.46453 19.9727 3.99672C20.507 4.52954 20.8361 5.06392 21.0828 5.69503C21.3213 6.3053 21.4849 7.00235 21.5335 8.02444C21.582 9.04809 21.5938 9.37468 21.5988 11.9815C21.6038 14.5881 21.5932 14.9153 21.5484 15.9399C21.5039 16.9611 21.3431 17.6594 21.1067 18.2699C20.8625 18.902 20.5353 19.4382 20.0031 19.9726C19.4709 20.5073 18.936 20.8361 18.3049 21.083C17.6946 21.3213 16.9976 21.4849 15.9761 21.5337C14.9522 21.5823 14.6252 21.5938 12.0178 21.5987C9.41158 21.6037 9.08468 21.5938 8.06074 21.5487C7.03896 21.5039 6.34068 21.3431 5.7301 21.107C5.09807 20.8625 4.56184 20.5356 4.02747 20.0031C3.49279 19.4706 3.16341 18.9359 2.91707 18.3048C2.67819 17.6948 2.51519 16.9975 2.46636 15.9763C2.41753 14.952 2.40603 14.6248 2.40105 12.0183C2.39606 9.41139 2.40633 9.08479 2.45112 8.06083C2.49622 7.03874 2.65641 6.34075 2.89281 5.72955C3.13696 5.09782 3.46418 4.56189 3.997 4.0272C4.52919 3.49283 5.06417 3.16312 5.69526 2.91709ZM6.35313 19.4942C6.69185 19.6245 7.20008 19.7801 8.13601 19.8208C9.14876 19.8647 9.45201 19.8743 12.0147 19.8693C14.5783 19.8647 14.8816 19.8538 15.894 19.8062C16.829 19.7617 17.3372 19.6043 17.675 19.4724C18.1232 19.2973 18.4423 19.088 18.7776 18.7524C19.1129 18.4155 19.3204 18.0954 19.494 17.6472C19.6246 17.3082 19.7798 16.7996 19.8206 15.8637C19.865 14.8516 19.8744 14.548 19.8694 11.9847C19.8647 9.42196 19.8538 9.11838 19.8056 8.10593C19.7615 7.17062 19.6044 6.66237 19.4722 6.32489C19.2971 5.87605 19.0884 5.55755 18.7518 5.22193C18.4153 4.88631 18.0952 4.67946 17.6464 4.5059C17.3083 4.37495 16.7994 4.22005 15.8641 4.17931C14.8514 4.13483 14.5478 4.1258 11.9845 4.13078C9.42184 4.13576 9.11859 4.14602 8.10615 4.19393C7.17054 4.2384 6.66292 4.39548 6.3245 4.52768C5.8766 4.70279 5.55747 4.91088 5.22187 5.24774C4.88687 5.5846 4.67941 5.90404 4.50585 6.35319C4.37585 6.69161 4.21938 7.20048 4.17926 8.1358C4.13509 9.14855 4.12576 9.45214 4.13074 12.0148C4.13541 14.5781 4.14629 14.8817 4.19388 15.8936C4.23774 16.8295 4.39605 17.3371 4.52763 17.6758C4.70274 18.1234 4.91146 18.4426 5.24769 18.7782C5.58455 19.1126 5.90461 19.3206 6.35313 19.4942Z" fill="#231D33"/>
</g>
<defs>
<clipPath id="clip0_403_6167">
<rect width="24" height="24" fill="white"/>
</clipPath>
</defs>
</svg>
