<svg width="24" height="24" viewBox="0 0 24 24" fill="none" xmlns="http://www.w3.org/2000/svg">
<path d="M12 3.67285C7.02923 3.67285 3 6.84968 3 10.769C3 13.3029 4.6849 15.5286 7.21875 16.7817C7.08115 17.2568 6.3326 19.84 6.30317 20.0433C6.30317 20.0433 6.285 20.1956 6.38365 20.2536C6.41666 20.2703 6.45272 20.28 6.48962 20.2822C6.52653 20.2845 6.5635 20.2792 6.59827 20.2666C6.88212 20.2268 9.88673 18.1196 10.406 17.757C10.9341 17.8303 11.4668 17.8665 12 17.8652C16.9708 17.8652 21 14.6883 21 10.769C21 6.84968 16.9708 3.67285 12 3.67285Z" fill="#231D33"/>
</svg>
