<svg width="24" height="24" viewBox="0 0 24 24" fill="none" xmlns="http://www.w3.org/2000/svg">
<g clip-path="url(#clip0_50_5398)">
<path d="M11.25 21.4996V20.5189C9.16667 20.3047 7.41283 19.4854 5.9885 18.0611C4.56417 16.6368 3.74492 14.8829 3.53075 12.7996H2.55C2.3375 12.7996 2.15942 12.7277 2.01575 12.5839C1.87192 12.44 1.8 12.2619 1.8 12.0494C1.8 11.8367 1.87192 11.6586 2.01575 11.5151C2.15942 11.3714 2.3375 11.2996 2.55 11.2996H3.53075C3.74492 9.21628 4.56417 7.46244 5.9885 6.03811C7.41283 4.61378 9.16667 3.79453 11.25 3.58036V2.59961C11.25 2.38711 11.3219 2.20903 11.4658 2.06536C11.6096 1.92153 11.7878 1.84961 12.0003 1.84961C12.2129 1.84961 12.391 1.92153 12.5345 2.06536C12.6782 2.20903 12.75 2.38711 12.75 2.59961V3.58036C14.8333 3.79453 16.5872 4.61378 18.0115 6.03811C19.4358 7.46244 20.2551 9.21628 20.4693 11.2996H21.45C21.6625 11.2996 21.8406 11.3715 21.9843 11.5154C22.1281 11.6592 22.2 11.8374 22.2 12.0499C22.2 12.2625 22.1281 12.4406 21.9843 12.5841C21.8406 12.7278 21.6625 12.7996 21.45 12.7996H20.4693C20.2551 14.8829 19.4358 16.6368 18.0115 18.0611C16.5872 19.4854 14.8333 20.3047 12.75 20.5189V21.4996C12.75 21.7121 12.6781 21.8902 12.5343 22.0339C12.3904 22.1777 12.2122 22.2496 11.9998 22.2496C11.7871 22.2496 11.609 22.1777 11.4655 22.0339C11.3218 21.8902 11.25 21.7121 11.25 21.4996ZM12 19.0496C13.9333 19.0496 15.5833 18.3663 16.95 16.9996C18.3167 15.6329 19 13.9829 19 12.0496C19 10.1163 18.3167 8.46628 16.95 7.09961C15.5833 5.73294 13.9333 5.04961 12 5.04961C10.0667 5.04961 8.41667 5.73294 7.05 7.09961C5.68333 8.46628 5 10.1163 5 12.0496C5 13.9829 5.68333 15.6329 7.05 16.9996C8.41667 18.3663 10.0667 19.0496 12 19.0496Z" fill="#231D33"/>
</g>
<defs>
<clipPath id="clip0_50_5398">
<rect width="24" height="24" fill="white"/>
</clipPath>
</defs>
</svg>
