<svg width="24" height="24" viewBox="0 0 24 24" fill="none" xmlns="http://www.w3.org/2000/svg">
<g clip-path="url(#clip0_403_5547)">
<path d="M16.8077 9.25013H20.8078C21.0203 9.25013 21.1983 9.32205 21.342 9.46588C21.4858 9.60972 21.5578 9.78788 21.5578 10.0004C21.5578 10.213 21.4858 10.3911 21.342 10.5346C21.1983 10.6783 21.0203 10.7501 20.8078 10.7501H16.8077C16.5953 10.7501 16.4171 10.6782 16.2732 10.5344C16.1296 10.3905 16.0577 10.2124 16.0577 9.99988C16.0577 9.78722 16.1296 9.60913 16.2732 9.46563C16.4171 9.32197 16.5953 9.25013 16.8077 9.25013ZM9 11.6924C8.0375 11.6924 7.21358 11.3497 6.52825 10.6644C5.84275 9.97888 5.5 9.15488 5.5 8.19238C5.5 7.22988 5.84275 6.40597 6.52825 5.72063C7.21358 5.03513 8.0375 4.69238 9 4.69238C9.9625 4.69238 10.7864 5.03513 11.4718 5.72063C12.1573 6.40597 12.5 7.22988 12.5 8.19238C12.5 9.15488 12.1573 9.97888 11.4718 10.6644C10.7864 11.3497 9.9625 11.6924 9 11.6924ZM1.5 17.7886V17.0846C1.5 16.595 1.633 16.1415 1.899 15.7241C2.165 15.3068 2.5205 14.986 2.9655 14.7616C3.95383 14.2771 4.95092 13.9137 5.95675 13.6714C6.96258 13.429 7.977 13.3079 9 13.3079C10.023 13.3079 11.0374 13.429 12.0433 13.6714C13.0491 13.9137 14.0462 14.2771 15.0345 14.7616C15.4795 14.986 15.835 15.3068 16.101 15.7241C16.367 16.1415 16.5 16.595 16.5 17.0846V17.7886C16.5 18.2103 16.3523 18.569 16.0568 18.8646C15.7613 19.1601 15.4026 19.3079 14.9808 19.3079H3.01925C2.59742 19.3079 2.23875 19.1601 1.94325 18.8646C1.64775 18.569 1.5 18.2103 1.5 17.7886ZM3 17.8079H15V17.0846C15 16.8821 14.9413 16.6946 14.824 16.5221C14.7067 16.3498 14.5474 16.2091 14.3462 16.1001C13.4846 15.6758 12.6061 15.3543 11.7107 15.1356C10.8152 14.9171 9.91167 14.8079 9 14.8079C8.08833 14.8079 7.18475 14.9171 6.28925 15.1356C5.39392 15.3543 4.51542 15.6758 3.65375 16.1001C3.45258 16.2091 3.29333 16.3498 3.176 16.5221C3.05867 16.6946 3 16.8821 3 17.0846V17.8079ZM9 10.1924C9.55 10.1924 10.0208 9.99655 10.4125 9.60488C10.8042 9.21322 11 8.74238 11 8.19238C11 7.64238 10.8042 7.17155 10.4125 6.77988C10.0208 6.38822 9.55 6.19238 9 6.19238C8.45 6.19238 7.97917 6.38822 7.5875 6.77988C7.19583 7.17155 7 7.64238 7 8.19238C7 8.74238 7.19583 9.21322 7.5875 9.60488C7.97917 9.99655 8.45 10.1924 9 10.1924Z" fill="#231D33"/>
</g>
<defs>
<clipPath id="clip0_403_5547">
<rect width="24" height="24" fill="white"/>
</clipPath>
</defs>
</svg>
