<svg width="20" height="20" viewBox="0 0 20 20" fill="none" xmlns="http://www.w3.org/2000/svg">
<path d="M10.0321 16.25C8.28724 16.25 6.8094 15.6447 5.59856 14.434C4.38759 13.2233 3.7821 11.7457 3.7821 10.0012C3.7821 8.25681 4.38759 6.77882 5.59856 5.56729C6.8094 4.35576 8.28724 3.75 10.0321 3.75C11.0064 3.75 11.9284 3.9666 12.7981 4.39979C13.6677 4.83312 14.391 5.44451 14.9679 6.23396V4.375C14.9679 4.19792 15.0279 4.04951 15.1477 3.92979C15.2676 3.80993 15.4161 3.75 15.5931 3.75C15.7704 3.75 15.9188 3.80993 16.0384 3.92979C16.1581 4.04951 16.2179 4.19792 16.2179 4.375V8.09292C16.2179 8.30639 16.1458 8.48528 16.0015 8.62958C15.857 8.77389 15.6781 8.84604 15.4648 8.84604H11.7469C11.5698 8.84604 11.4213 8.78618 11.3015 8.66646C11.1818 8.5466 11.1219 8.39806 11.1219 8.22083C11.1219 8.04375 11.1818 7.89535 11.3015 7.77562C11.4213 7.65604 11.5698 7.59625 11.7469 7.59625H14.4136C13.9744 6.79167 13.3654 6.15785 12.5865 5.69479C11.8077 5.2316 10.9563 5 10.0321 5C8.64322 5 7.46266 5.48611 6.49044 6.45833C5.51822 7.43056 5.0321 8.61111 5.0321 10C5.0321 11.3889 5.51822 12.5694 6.49044 13.5417C7.46266 14.5139 8.64322 15 10.0321 15C11.0006 15 11.8872 14.7457 12.6919 14.2371C13.4966 13.7286 14.1063 13.0502 14.5209 12.2019C14.5999 12.0502 14.7161 11.9442 14.8694 11.8838C15.0227 11.8235 15.179 11.82 15.3381 11.8733C15.508 11.9268 15.6269 12.0379 15.6948 12.2067C15.7626 12.3756 15.757 12.5358 15.6779 12.6875C15.1618 13.7665 14.4 14.63 13.3925 15.2779C12.385 15.926 11.2649 16.25 10.0321 16.25Z" fill="#231D33" fill-opacity="0.8"/>
</svg>
