<svg width="18" height="20" viewBox="0 0 18 20" fill="none" xmlns="http://www.w3.org/2000/svg">
<path d="M7.89224 19.5C7.55124 19.5 7.25674 19.3868 7.00874 19.1605C6.76058 18.9343 6.60958 18.6558 6.55574 18.325L6.31149 16.4538C6.04366 16.3641 5.76899 16.2385 5.48749 16.077C5.20616 15.9153 4.95458 15.7422 4.73274 15.5577L2.99999 16.2943C2.68583 16.4328 2.37016 16.4462 2.05299 16.3345C1.73566 16.223 1.48916 16.0205 1.31349 15.727L0.186494 13.773C0.0108275 13.4795 -0.0397558 13.1689 0.0347442 12.8413C0.109077 12.5138 0.279578 12.2436 0.546244 12.0308L2.04424 10.9058C2.02124 10.7571 2.00491 10.6077 1.99524 10.4578C1.98558 10.3078 1.98074 10.1583 1.98074 10.0095C1.98074 9.86733 1.98558 9.72283 1.99524 9.576C2.00491 9.42917 2.02124 9.26858 2.04424 9.09425L0.546244 7.96925C0.279578 7.75642 0.110661 7.48458 0.0394942 7.15375C-0.0316724 6.82308 0.0205775 6.51092 0.196244 6.21725L1.31349 4.29225C1.48916 4.00508 1.73566 3.80417 2.05299 3.6895C2.37016 3.57467 2.68583 3.5865 2.99999 3.725L4.72299 4.452C4.96416 4.261 5.22158 4.08633 5.49524 3.928C5.76891 3.76967 6.03783 3.64242 6.30199 3.54625L6.55574 1.675C6.60958 1.34417 6.76058 1.06567 7.00874 0.8395C7.25674 0.613167 7.55124 0.5 7.89224 0.5H10.1077C10.4487 0.5 10.7432 0.613167 10.9912 0.8395C11.2394 1.06567 11.3904 1.34417 11.4442 1.675L11.6885 3.55575C11.9885 3.66475 12.2599 3.792 12.5027 3.9375C12.7457 4.083 12.991 4.2545 13.2385 4.452L15.0097 3.725C15.3237 3.5865 15.6394 3.57467 15.9567 3.6895C16.2741 3.80417 16.5205 4.00508 16.696 4.29225L17.8135 6.227C17.9892 6.5205 18.0397 6.83108 17.9652 7.15875C17.8909 7.48625 17.7204 7.75642 17.4537 7.96925L15.9172 9.123C15.9531 9.2845 15.9727 9.4355 15.976 9.576C15.9792 9.71633 15.9807 9.85767 15.9807 10C15.9807 10.1358 15.9775 10.274 15.971 10.4145C15.9647 10.5548 15.9417 10.7154 15.902 10.8963L17.4095 12.0308C17.6762 12.2436 17.8483 12.5138 17.926 12.8413C18.0035 13.1689 17.9544 13.4795 17.7787 13.773L16.646 15.7172C16.4705 16.0109 16.2225 16.2135 15.902 16.325C15.5815 16.4365 15.2642 16.423 14.95 16.2845L13.2385 15.548C12.991 15.7455 12.7384 15.9202 12.4807 16.072C12.2231 16.224 11.959 16.3481 11.6885 16.4443L11.4442 18.325C11.3904 18.6558 11.2394 18.9343 10.9912 19.1605C10.7432 19.3868 10.4487 19.5 10.1077 19.5H7.89224ZM9.01149 13C9.84349 13 10.5515 12.708 11.1355 12.124C11.7195 11.54 12.0115 10.832 12.0115 10C12.0115 9.168 11.7195 8.46 11.1355 7.876C10.5515 7.292 9.84349 7 9.01149 7C8.16916 7 7.45858 7.292 6.87974 7.876C6.30091 8.46 6.01149 9.168 6.01149 10C6.01149 10.832 6.30091 11.54 6.87974 12.124C7.45858 12.708 8.16916 13 9.01149 13Z" fill="#231D33" fill-opacity="0.8"/>
</svg>
