<svg width="19" height="19" viewBox="0 0 19 19" fill="none" xmlns="http://www.w3.org/2000/svg">
<path d="M8.7 18.5C8.28867 18.5 7.89642 18.4121 7.52325 18.2365C7.15008 18.0608 6.83142 17.8108 6.56725 17.4865L0.975002 10.6537C0.834002 10.4794 0.770252 10.2849 0.783752 10.0702C0.797252 9.8554 0.886002 9.6724 1.05 9.52123C1.29617 9.2814 1.58784 9.14773 1.925 9.12023C2.26217 9.09273 2.56734 9.1719 2.8405 9.35773L6 11.4307V1.24048C6 1.02798 6.07192 0.849812 6.21575 0.705978C6.35959 0.562312 6.53775 0.490479 6.75025 0.490479C6.96292 0.490479 7.141 0.562312 7.2845 0.705978C7.42817 0.849812 7.5 1.02798 7.5 1.24048V12.5865C7.5 12.9416 7.34009 13.2071 7.02025 13.3827C6.70042 13.5582 6.38984 13.5454 6.0885 13.3442L4.00375 11.9942L7.74075 16.5342C7.86742 16.6794 8.01284 16.7933 8.177 16.876C8.341 16.9586 8.51534 17 8.7 17H15.25C15.8768 17 16.4086 16.7817 16.8453 16.3452C17.2818 15.9086 17.5 15.3768 17.5 14.75V7.74998C17.5 7.53748 17.5719 7.35931 17.7158 7.21548C17.8596 7.07181 18.0378 6.99998 18.2503 6.99998C18.4629 6.99998 18.641 7.07181 18.7845 7.21548C18.9282 7.35931 19 7.53748 19 7.74998V14.75C19 15.7858 18.634 16.6698 17.902 17.402C17.1698 18.134 16.2858 18.5 15.25 18.5H8.7ZM10.587 3.99998C10.7995 3.99998 10.9776 4.07181 11.1213 4.21548C11.2648 4.35931 11.3365 4.53748 11.3365 4.74998V9.74998C11.3365 9.96248 11.2646 10.1406 11.1208 10.2842C10.9769 10.4281 10.7988 10.5 10.5863 10.5C10.3736 10.5 10.1955 10.4281 10.052 10.2842C9.90833 10.1406 9.8365 9.96248 9.8365 9.74998V4.74998C9.8365 4.53748 9.90842 4.35931 10.0523 4.21548C10.1961 4.07181 10.3743 3.99998 10.587 3.99998ZM14.4235 5.09623C14.636 5.09623 14.8141 5.16806 14.9578 5.31173C15.1013 5.45556 15.173 5.63373 15.173 5.84623V9.74998C15.173 9.96248 15.1011 10.1406 14.9573 10.2842C14.8134 10.4281 14.6353 10.5 14.4228 10.5C14.2101 10.5 14.032 10.4281 13.8885 10.2842C13.7448 10.1406 13.673 9.96248 13.673 9.74998V5.84623C13.673 5.63373 13.7449 5.45556 13.8888 5.31173C14.0326 5.16806 14.2108 5.09623 14.4235 5.09623Z" fill="#7242EB"/>
</svg>
