<svg width="24" height="24" viewBox="0 0 24 24" fill="none" xmlns="http://www.w3.org/2000/svg">
<path d="M4.30775 19.5C3.81058 19.5 3.385 19.323 3.031 18.969C2.677 18.615 2.5 18.1894 2.5 17.6923V14.952C2.5 14.7878 2.54717 14.6423 2.6415 14.5155C2.73567 14.3885 2.86158 14.3019 3.01925 14.2558C3.45775 14.0519 3.81417 13.7493 4.0885 13.3478C4.36283 12.9461 4.5 12.4967 4.5 11.9995C4.5 11.5023 4.36283 11.0532 4.0885 10.652C3.81417 10.2507 3.45775 9.94808 3.01925 9.74425C2.86158 9.69808 2.73567 9.6115 2.6415 9.4845C2.54717 9.35767 2.5 9.21217 2.5 9.048V6.30775C2.5 5.81058 2.677 5.385 3.031 5.031C3.385 4.677 3.81058 4.5 4.30775 4.5H19.6923C20.1894 4.5 20.615 4.677 20.969 5.031C21.323 5.385 21.5 5.81058 21.5 6.30775V9.048C21.5 9.21217 21.4528 9.35767 21.3585 9.4845C21.2643 9.6115 21.1384 9.69808 20.9807 9.74425C20.5422 9.94808 20.1858 10.2508 19.9115 10.6523C19.6372 11.0539 19.5 11.5033 19.5 12.0005C19.5 12.4977 19.6372 12.9468 19.9115 13.348C20.1858 13.7493 20.5422 14.0519 20.9807 14.2558C21.1384 14.3019 21.2643 14.3885 21.3585 14.5155C21.4528 14.6423 21.5 14.7878 21.5 14.952V17.6923C21.5 18.1894 21.323 18.615 20.969 18.969C20.615 19.323 20.1894 19.5 19.6923 19.5H4.30775ZM4.30775 18H19.6923C19.7821 18 19.8558 17.9712 19.9135 17.9135C19.9712 17.8558 20 17.7821 20 17.6923V15.45C19.3833 15.0833 18.8958 14.5958 18.5375 13.9875C18.1792 13.3792 18 12.7167 18 12C18 11.2833 18.1792 10.6208 18.5375 10.0125C18.8958 9.40417 19.3833 8.91667 20 8.55V6.30775C20 6.21792 19.9712 6.14417 19.9135 6.0865C19.8558 6.02883 19.7821 6 19.6923 6H4.30775C4.21792 6 4.14417 6.02883 4.0865 6.0865C4.02883 6.14417 4 6.21792 4 6.30775V8.55C4.61667 8.91667 5.10417 9.40417 5.4625 10.0125C5.82083 10.6208 6 11.2833 6 12C6 12.7167 5.82083 13.3792 5.4625 13.9875C5.10417 14.5958 4.61667 15.0833 4 15.45V17.6923C4 17.7821 4.02883 17.8558 4.0865 17.9135C4.14417 17.9712 4.21792 18 4.30775 18ZM12.0003 16.6538C12.2129 16.6538 12.391 16.5818 12.5345 16.438C12.6782 16.2943 12.75 16.1162 12.75 15.9035C12.75 15.6908 12.6781 15.5128 12.5343 15.3693C12.3904 15.2256 12.2122 15.1538 11.9998 15.1538C11.7871 15.1538 11.609 15.2257 11.4655 15.3695C11.3218 15.5133 11.25 15.6916 11.25 15.9043C11.25 16.1167 11.3219 16.2948 11.4658 16.4385C11.6096 16.582 11.7878 16.6538 12.0003 16.6538ZM12.0003 12.75C12.2129 12.75 12.391 12.6781 12.5345 12.5343C12.6782 12.3904 12.75 12.2122 12.75 11.9997C12.75 11.7871 12.6781 11.609 12.5343 11.4655C12.3904 11.3218 12.2122 11.25 11.9998 11.25C11.7871 11.25 11.609 11.3219 11.4655 11.4658C11.3218 11.6096 11.25 11.7878 11.25 12.0003C11.25 12.2129 11.3219 12.391 11.4658 12.5345C11.6096 12.6782 11.7878 12.75 12.0003 12.75ZM12.0003 8.84625C12.2129 8.84625 12.391 8.77433 12.5345 8.6305C12.6782 8.48667 12.75 8.30842 12.75 8.09575C12.75 7.88325 12.6781 7.70517 12.5343 7.5615C12.3904 7.418 12.2122 7.34625 11.9998 7.34625C11.7871 7.34625 11.609 7.41817 11.4655 7.562C11.3218 7.70567 11.25 7.88383 11.25 8.0965C11.25 8.30917 11.3219 8.48725 11.4658 8.63075C11.6096 8.77442 11.7878 8.84625 12.0003 8.84625Z" fill="#231D33" fill-opacity="0.6"/>
</svg>
