<svg width="16" height="16" viewBox="0 0 16 16" fill="none" xmlns="http://www.w3.org/2000/svg">
<path d="M8.00147 10.3847C8.75691 10.3847 9.39853 10.1203 9.9263 9.5915C10.4541 9.06272 10.718 8.42061 10.718 7.66517C10.718 6.90972 10.4536 6.26811 9.9248 5.74033C9.39603 5.21256 8.75391 4.94867 7.99847 4.94867C7.24303 4.94867 6.60142 5.21306 6.07364 5.74183C5.54586 6.27061 5.28197 6.91272 5.28197 7.66817C5.28197 8.42361 5.54636 9.06522 6.07514 9.593C6.60391 10.1208 7.24603 10.3847 8.00147 10.3847ZM7.99997 9.46667C7.49997 9.46667 7.07497 9.29167 6.72497 8.94167C6.37497 8.59167 6.19997 8.16667 6.19997 7.66667C6.19997 7.16667 6.37497 6.74167 6.72497 6.39167C7.07497 6.04167 7.49997 5.86667 7.99997 5.86667C8.49997 5.86667 8.92497 6.04167 9.27497 6.39167C9.62497 6.74167 9.79997 7.16667 9.79997 7.66667C9.79997 8.16667 9.62497 8.59167 9.27497 8.94167C8.92497 9.29167 8.49997 9.46667 7.99997 9.46667ZM7.99997 12.3333C6.59653 12.3333 5.31297 11.9589 4.1493 11.2102C2.98564 10.4615 2.0568 9.4765 1.3628 8.25517C1.30725 8.15939 1.26664 8.06289 1.24097 7.96567C1.21541 7.86844 1.20264 7.76867 1.20264 7.66633C1.20264 7.564 1.21541 7.46433 1.24097 7.36733C1.26664 7.27033 1.30725 7.17394 1.3628 7.07817C2.0568 5.85683 2.98564 4.87183 4.1493 4.12317C5.31297 3.37439 6.59653 3 7.99997 3C9.40341 3 10.687 3.37439 11.8506 4.12317C13.0143 4.87183 13.9431 5.85683 14.6371 7.07817C14.6927 7.17394 14.7333 7.27044 14.759 7.36767C14.7845 7.46489 14.7973 7.56467 14.7973 7.667C14.7973 7.76933 14.7845 7.869 14.759 7.966C14.7333 8.063 14.6927 8.15939 14.6371 8.25517C13.9431 9.4765 13.0143 10.4615 11.8506 11.2102C10.687 11.9589 9.40341 12.3333 7.99997 12.3333ZM7.99997 11.3333C9.25553 11.3333 10.4083 11.0028 11.4583 10.3417C12.5083 9.68055 13.3111 8.78889 13.8666 7.66667C13.3111 6.54444 12.5083 5.65278 11.4583 4.99167C10.4083 4.33056 9.25553 4 7.99997 4C6.74441 4 5.59164 4.33056 4.54164 4.99167C3.49164 5.65278 2.68886 6.54444 2.1333 7.66667C2.68886 8.78889 3.49164 9.68055 4.54164 10.3417C5.59164 11.0028 6.74441 11.3333 7.99997 11.3333Z" fill="#231D33" fill-opacity="0.6"/>
</svg>
