<svg width="17" height="16" viewBox="0 0 17 16" fill="none" xmlns="http://www.w3.org/2000/svg">
<path d="M13.7369 11.5752C13.5433 12.0224 13.3142 12.4341 13.0487 12.8125C12.6868 13.3285 12.3905 13.6856 12.1622 13.8839C11.8082 14.2094 11.429 14.3762 11.0229 14.3856C10.7313 14.3856 10.3797 14.3027 9.97047 14.1344C9.55985 13.9669 9.1825 13.8839 8.83747 13.8839C8.4756 13.8839 8.0875 13.9669 7.67239 14.1344C7.25664 14.3027 6.92171 14.3904 6.66564 14.3991C6.2762 14.4157 5.88803 14.2442 5.50056 13.8839C5.25326 13.6682 4.94394 13.2985 4.57338 12.7746C4.17581 12.2152 3.84894 11.5666 3.59287 10.827C3.31863 10.0282 3.18115 9.25472 3.18115 8.50587C3.18115 7.64806 3.36651 6.90821 3.73778 6.28822C4.02956 5.79022 4.41773 5.39738 4.90357 5.10899C5.3894 4.82061 5.91434 4.67365 6.47965 4.66425C6.78898 4.66425 7.19461 4.75993 7.6987 4.94797C8.20136 5.13665 8.52411 5.23233 8.66562 5.23233C8.77141 5.23233 9.12996 5.12045 9.73778 4.8974C10.3126 4.69056 10.7977 4.60491 11.1951 4.63865C12.272 4.72556 13.0811 5.15008 13.6191 5.9149C12.656 6.49846 12.1796 7.31582 12.1891 8.36436C12.1978 9.18109 12.494 9.86073 13.0763 10.4004C13.3402 10.6508 13.6349 10.8444 13.9628 10.9819C13.8917 11.1881 13.8167 11.3856 13.7369 11.5752ZM11.267 1.85623C11.267 2.49638 11.0331 3.09408 10.567 3.64731C10.0044 4.30499 9.32401 4.68503 8.58613 4.62506C8.57673 4.54826 8.57128 4.46743 8.57128 4.3825C8.57128 3.76796 8.83881 3.11028 9.31389 2.57254C9.55108 2.30027 9.85274 2.07388 10.2186 1.89329C10.5836 1.71539 10.9289 1.61701 11.2536 1.60016C11.2631 1.68574 11.267 1.77132 11.267 1.85622V1.85623Z" fill="#231D33" fill-opacity="0.8"/>
</svg>
