<svg width="32" height="32" viewBox="0 0 32 32" fill="none" xmlns="http://www.w3.org/2000/svg">
<path d="M20.5581 1.68966C20.1522 6.69606 18.1854 10.975 14.6576 14.5264C11.1298 18.0778 6.8839 20.0882 1.92 20.5575C1.38927 20.6201 0.936585 20.4715 0.561951 20.1116C0.187317 19.7518 -5.56318e-08 19.3059 0 18.774C5.56318e-08 18.2421 0.171707 17.7962 0.515122 17.4363C0.858537 17.0765 1.29561 16.8653 1.82634 16.8027C5.79122 16.3647 9.17073 14.7298 11.9649 11.898C14.759 9.06627 16.359 5.64784 16.7649 1.64272C16.8273 1.14209 17.0459 0.743138 17.4205 0.445883C17.7951 0.148628 18.2322 7.3138e-07 18.7317 7.83621e-07C19.2624 8.39128e-07 19.7151 0.164273 20.0898 0.492818C20.4644 0.821363 20.6205 1.22031 20.5581 1.68966ZM13.0185 1.68966C12.6439 4.63092 11.4107 7.14976 9.31903 9.24619C7.22732 11.3426 4.71415 12.5942 1.77951 13.001C1.28 13.0636 0.858537 12.9228 0.515123 12.5786C0.171708 12.2344 7.29758e-07 11.7963 7.8539e-07 11.2644C8.37749e-07 10.7638 0.148294 10.3257 0.444879 9.95021C0.741464 9.57473 1.13951 9.34006 1.63903 9.24619C3.60585 8.902 5.2761 8.01806 6.64976 6.59436C8.02342 5.17067 8.88195 3.47319 9.22537 1.50192C9.28781 1.03257 9.51415 0.664912 9.90439 0.398947C10.2946 0.132982 10.7395 -5.22414e-08 11.239 0C11.7698 5.55065e-08 12.2146 0.164273 12.5737 0.492817C12.9327 0.821362 13.081 1.22031 13.0185 1.68966Z" fill="#7242EB"/>
<path d="M11.442 30.3103C11.8478 25.3039 13.8146 21.025 17.3424 17.4736C20.8702 13.9222 25.1161 11.9118 30.08 11.4425C30.6107 11.3799 31.0634 11.5285 31.4381 11.8884C31.8127 12.2482 32 12.6941 32 13.226C32 13.7579 31.8283 14.2038 31.4849 14.5637C31.1415 14.9235 30.7044 15.1347 30.1737 15.1973C26.2088 15.6353 22.8293 17.2702 20.0351 20.102C17.241 22.9337 15.641 26.3522 15.2351 30.3573C15.1727 30.8579 14.9542 31.2569 14.5795 31.5541C14.2049 31.8514 13.7678 32 13.2683 32C12.7376 32 12.2849 31.8357 11.9102 31.5072C11.5356 31.1786 11.3795 30.7797 11.442 30.3103ZM18.9815 30.3103C19.3561 27.3691 20.5893 24.8502 22.681 22.7538C24.7727 20.6574 27.2859 19.4058 30.2205 18.999C30.72 18.9364 31.1415 19.0772 31.4849 19.4214C31.8283 19.7656 32 20.2037 32 20.7356C32 21.2362 31.8517 21.6743 31.5551 22.0498C31.2585 22.4253 30.8605 22.6599 30.361 22.7538C28.3941 23.098 26.7239 23.9819 25.3502 25.4056C23.9766 26.8293 23.1181 28.5268 22.7746 30.4981C22.7122 30.9674 22.4859 31.3351 22.0956 31.6011C21.7054 31.867 21.2605 32 20.761 32C20.2302 32 19.7854 31.8357 19.4263 31.5072C19.0673 31.1786 18.919 30.7797 18.9815 30.3103Z" fill="#7242EB"/>
</svg>
