<svg width="46" height="58" viewBox="0 0 46 58" fill="none" xmlns="http://www.w3.org/2000/svg">
<path d="M23 0.5C28.9524 0.5 34.1777 2.60279 38.7373 6.87207C43.2123 11.0622 45.5 16.7064 45.5 23.9746C45.5 28.5176 43.7918 33.5396 40.1924 39.0703C36.5959 44.5964 31.1356 50.6528 23.7607 57.2393C23.633 57.3403 23.5194 57.403 23.418 57.4404C23.3132 57.4791 23.202 57.5 23.0752 57.5C22.8717 57.5 22.7108 57.4706 22.5811 57.4268C22.459 57.3855 22.3462 57.3248 22.2373 57.2393C14.863 50.6532 9.4039 44.5962 5.80762 39.0703C2.20824 33.5396 0.5 28.5176 0.5 23.9746C0.5 16.7064 2.78773 11.0622 7.2627 6.87207C11.8223 2.60279 17.0476 0.5 23 0.5Z" fill="white"/>
</svg>
