<svg width="48" height="60" viewBox="0 0 48 60" fill="none" xmlns="http://www.w3.org/2000/svg">
<path d="M24.075 60C23.725 60 23.4 59.9492 23.1 59.8477C22.8 59.7462 22.525 59.5939 22.275 59.3909C14.825 52.7411 9.25 46.5736 5.55 40.8883C1.85 35.203 0 29.8985 0 24.9746C0 17.3604 2.4125 11.2944 7.2375 6.77665C12.0625 2.25888 17.65 0 24 0C30.35 0 35.9375 2.25888 40.7625 6.77665C45.5875 11.2944 48 17.3604 48 24.9746C48 29.8985 46.15 35.203 42.45 40.8883C38.75 46.5736 33.175 52.7411 25.725 59.3909C25.475 59.5939 25.2125 59.7462 24.9375 59.8477C24.6625 59.9492 24.375 60 24.075 60Z" fill="#7242EB"/>
</svg>
