<svg width="48" height="60" viewBox="0 0 48 60" fill="none" xmlns="http://www.w3.org/2000/svg">
<g clip-path="url(#clip0_1069_15747)">
<path d="M24 1.5C29.9524 1.5 35.1777 3.60279 39.7373 7.87207C44.2123 12.0622 46.5 17.7064 46.5 24.9746C46.5 29.5176 44.7918 34.5396 41.1924 40.0703C37.5959 45.5964 32.1356 51.6528 24.7607 58.2393C24.633 58.3403 24.5194 58.403 24.418 58.4404C24.3132 58.4791 24.202 58.5 24.0752 58.5C23.8717 58.5 23.7108 58.4706 23.5811 58.4268C23.459 58.3855 23.3462 58.3248 23.2373 58.2393C15.863 51.6532 10.4039 45.5962 6.80762 40.0703C3.20824 34.5396 1.5 29.5176 1.5 24.9746C1.5 17.7064 3.78773 12.0622 8.2627 7.87207C12.8223 3.60279 18.0476 1.5 24 1.5Z" fill="white" stroke="#B8A4E9" stroke-width="3"/>
</g>
<defs>
<clipPath id="clip0_1069_15747">
<rect width="48" height="60" fill="white"/>
</clipPath>
</defs>
</svg>
